<svg xmlns="http://www.w3.org/2000/svg" xmlns:xlink="http://www.w3.org/1999/xlink" id="Layer_1" width="175.75" height="175.75" x="0" y="0" enable-background="new 0 0 175.75 175.75" version="1.1" viewBox="0 0 175.75 175.75" xml:space="preserve"><switch><g><g id="Light" display="none"><path fill="#00B48D" d="M66.851,61.616h41.934v7.775H66.851V61.616z M63.855,72.386h47.924V58.63H63.855V72.386 z" display="inline"/><g display="inline"><defs><rect id="SVGID_1_" width="139.936" height="58.49" x="17.907" y="58.631"/></defs><clipPath id="SVGID_2_"><use overflow="visible" xlink:href="#SVGID_1_"/></clipPath><path fill="#FFF" d="M20.788,95.138h-2.995V81.372h2.995v5.44h5.352v-5.44h2.995v13.766H26.14 v-5.704h-5.352V95.138z M35.94,95.357c-3.04,0-5.109-1.916-5.109-5.064c0-3.063,2.025-5.177,4.712-5.177 c2.929,0,4.383,1.961,4.383,4.891v1.1h-6.255c0.353,1.521,1.542,1.916,2.732,1.916c1.034,0,1.783-0.22,2.709-0.793h0.109v2.27 C38.429,95.071,37.307,95.357,35.94,95.357 M33.671,89.103h3.569c-0.067-1.013-0.484-1.718-1.652-1.718 C34.707,87.385,33.936,87.759,33.671,89.103 M47.746,89.368l-1.541,5.77h-2.622l-2.995-9.691v-0.109h2.863l1.63,5.792 l1.542-5.792h2.335l1.564,5.792l1.651-5.792h2.753v0.109l-2.995,9.691H49.31L47.746,89.368z M59.793,95.357 c-2.379,0-3.348-0.946-3.348-3.172V81.372h2.908v10.615c0,0.685,0.264,0.927,0.837,0.927c0.198,0,0.484-0.066,0.66-0.134h0.044 v2.401C60.652,95.27,60.233,95.357,59.793,95.357 M66.819,95.357c-3.04,0-5.11-1.916-5.11-5.064 c0-3.063,2.026-5.177,4.713-5.177c2.929,0,4.383,1.961,4.383,4.891v1.1H64.55c0.353,1.521,1.542,1.916,2.731,1.916 c1.035,0,1.784-0.22,2.709-0.793h0.11v2.27C69.308,95.071,68.185,95.357,66.819,95.357 M64.55,89.103h3.568 c-0.066-1.013-0.484-1.718-1.652-1.718C65.585,87.385,64.814,87.759,64.55,89.103 M82.743,85.337h2.158v2.334h-2.158v3.986 c0,0.859,0.33,1.257,1.21,1.257c0.243,0,0.552-0.022,0.882-0.134h0.066v2.291c-0.374,0.132-0.948,0.286-1.784,0.286 c-2.357,0-3.282-1.079-3.282-3.567v-4.119h-3.721v3.986c0,0.859,0.329,1.257,1.21,1.257c0.243,0,0.551-0.022,0.881-0.134h0.067 v2.291c-0.375,0.132-0.948,0.286-1.785,0.286c-2.356,0-3.281-1.079-3.281-3.567v-4.119h-1.498v-2.334h1.498v-2.688h2.908v2.688 h3.721v-2.688h2.908V85.337z M99.983,86.042c0,2.995-2.004,4.625-5.043,4.625h-2.137v4.471h-2.995V81.372h5.132 C97.979,81.372,99.983,83.002,99.983,86.042 M94.697,88.135c1.52,0,2.247-0.859,2.247-2.093c0-1.278-0.727-2.138-2.247-2.138 h-1.894v4.23H94.697z M106.459,94.169c-0.639,0.77-1.585,1.145-2.599,1.145c-1.916,0-3.48-1.166-3.48-3.236 c0-1.917,1.564-3.194,3.81-3.194c0.705,0,1.431,0.11,2.18,0.331v-0.177c0-1.058-0.594-1.52-2.158-1.52 c-0.991,0-1.938,0.286-2.753,0.748h-0.11v-2.334c0.749-0.441,2.07-0.815,3.369-0.815c2.952,0,4.559,1.409,4.559,3.877v6.145 h-2.818V94.169z M106.371,92.054v-0.837c-0.44-0.242-1.013-0.33-1.607-0.33c-0.947,0-1.52,0.352-1.52,1.145 c0,0.816,0.573,1.168,1.431,1.168C105.489,93.199,106.106,92.78,106.371,92.054 M110.754,90.249c0-3.15,2.223-5.133,5.131-5.133 c1.035,0,2.005,0.221,2.732,0.748v2.49h-0.111c-0.638-0.484-1.387-0.771-2.247-0.771c-1.453,0-2.554,0.991-2.554,2.666 c0,1.673,1.101,2.643,2.554,2.643c0.86,0,1.609-0.287,2.247-0.771h0.111v2.488c-0.727,0.529-1.697,0.749-2.732,0.749 C112.978,95.357,110.754,93.397,110.754,90.249 M123.353,90.688v4.449h-2.908V81.372h2.908v7.842l2.928-3.877h3.306v0.109 l-3.524,4.449l3.524,5.133v0.109h-3.326L123.353,90.688z M136.192,94.169c-0.64,0.77-1.586,1.145-2.599,1.145 c-1.916,0-3.48-1.166-3.48-3.236c0-1.917,1.564-3.194,3.811-3.194c0.705,0,1.432,0.11,2.18,0.331v-0.177 c0-1.058-0.594-1.52-2.158-1.52c-0.99,0-1.938,0.286-2.753,0.748h-0.11v-2.334c0.75-0.441,2.07-0.815,3.371-0.815 c2.95,0,4.559,1.409,4.559,3.877v6.145h-2.819V94.169z M136.104,92.054v-0.837c-0.439-0.242-1.012-0.33-1.607-0.33 c-0.947,0-1.52,0.352-1.52,1.145c0,0.816,0.572,1.168,1.432,1.168C135.224,93.199,135.84,92.78,136.104,92.054 M143.901,86.922 c0.528-1.079,1.299-1.695,2.378-1.695c0.396,0,0.793,0.087,0.947,0.176v2.775h-0.109c-0.332-0.132-0.727-0.221-1.279-0.221 c-0.901,0-1.606,0.528-1.849,1.543v5.638h-2.907v-9.801h2.819V86.922z M155.023,94.125c-0.617,0.793-1.585,1.232-2.908,1.232 c-2.51,0-4.117-2.291-4.117-5.108c0-2.82,1.607-5.133,4.117-5.133c1.278,0,2.204,0.396,2.82,1.123v-4.867h2.908v13.766h-2.82 V94.125z M154.936,91.813v-3.149c-0.485-0.706-1.123-1.015-1.85-1.015c-1.278,0-2.137,0.926-2.137,2.601 c0,1.673,0.858,2.576,2.137,2.576C153.813,92.825,154.45,92.517,154.936,91.813 M45.64,99.633h8.502v1.674h-6.585v4.207h5.969 v1.63h-5.969v4.581h6.585v1.673H45.64V99.633z M61.167,103.509c2.181,0,3.391,1.432,3.391,3.788v6.101h-1.827v-6.056 c0-1.255-0.639-2.159-2.026-2.159c-1.145,0-2.114,0.728-2.445,1.762v6.453h-1.828v-9.689h1.828v1.408 C58.833,104.214,59.801,103.509,61.167,103.509 M69.471,103.708h2.488v1.563h-2.488v5.219c0,1.102,0.572,1.477,1.607,1.477 c0.287,0,0.594-0.044,0.815-0.132h0.066v1.563c-0.264,0.111-0.638,0.199-1.145,0.199c-2.269,0-3.171-1.036-3.171-2.93v-5.396 h-1.674v-1.563h1.674v-2.578h1.828V103.708z M77.906,113.597c-2.841,0-4.779-1.895-4.779-4.934s1.805-5.154,4.426-5.154 c2.665,0,4.053,1.916,4.053,4.758v0.836h-6.651c0.197,1.961,1.453,2.908,3.193,2.908c1.08,0,1.85-0.243,2.709-0.881h0.067v1.607 C80.131,113.354,79.095,113.597,77.906,113.597 M75.021,107.605h4.823c-0.066-1.432-0.77-2.533-2.269-2.533 C76.188,105.072,75.285,106.107,75.021,107.605 M85.593,105.205c0.418-1.035,1.343-1.652,2.4-1.652 c0.419,0,0.793,0.067,0.947,0.155v1.806h-0.066c-0.263-0.132-0.705-0.198-1.145-0.198c-0.991,0-1.828,0.66-2.136,1.763v6.319 h-1.828v-9.689h1.828V105.205z M95.151,103.509c2.885,0,4.427,2.356,4.427,5.044c0,2.687-1.542,5.044-4.427,5.044 c-1.189,0-2.202-0.617-2.709-1.278v4.802h-1.828v-13.412h1.828v1.101C92.949,104.126,93.962,103.509,95.151,103.509 M94.843,111.945c1.806,0,2.863-1.433,2.863-3.393c0-1.938-1.057-3.392-2.863-3.392c-0.992,0-1.916,0.595-2.401,1.542v3.722 C92.927,111.373,93.852,111.945,94.843,111.945 M103.565,105.205c0.418-1.035,1.343-1.652,2.401-1.652 c0.418,0,0.792,0.067,0.946,0.155v1.806h-0.066c-0.264-0.132-0.705-0.198-1.145-0.198c-0.991,0-1.828,0.66-2.136,1.763v6.319 h-1.829v-9.689h1.829V105.205z M109.556,99.787c0.639,0,1.168,0.507,1.168,1.145c0,0.639-0.529,1.146-1.168,1.146 c-0.617,0-1.167-0.508-1.167-1.146C108.388,100.294,108.938,99.787,109.556,99.787 M108.652,103.708h1.828v9.69h-1.828V103.708z M117,107.737c1.387,0.441,2.93,1.014,2.93,2.864c0,1.981-1.631,2.995-3.722,2.995c-1.278,0-2.555-0.309-3.282-0.881v-1.741 h0.088c0.815,0.75,2.026,1.08,3.171,1.08c1.036,0,1.961-0.397,1.961-1.234c0-0.858-0.771-1.057-2.291-1.563 c-1.365-0.441-2.885-0.948-2.885-2.776c0-1.872,1.542-2.973,3.502-2.973c1.146,0,2.16,0.243,2.973,0.793v1.763h-0.065 c-0.793-0.64-1.717-1.014-2.862-1.014c-1.147,0-1.785,0.507-1.785,1.188C114.731,107.011,115.437,107.23,117,107.737 M126.295,113.597c-2.842,0-4.779-1.895-4.779-4.934s1.806-5.154,4.427-5.154c2.665,0,4.051,1.916,4.051,4.758v0.836h-6.651 c0.199,1.961,1.455,2.908,3.195,2.908c1.079,0,1.85-0.243,2.709-0.881h0.066v1.607 C128.52,113.354,127.484,113.597,126.295,113.597 M123.409,107.605h4.824c-0.067-1.432-0.771-2.533-2.269-2.533 C124.578,105.072,123.674,106.107,123.409,107.605" clip-path="url(#SVGID_2_)"/></g></g><rect id="outline" width="175.75" height="175.75" fill="none"/><g id="Dark"><path fill="#00B48D" d="M66.904,61.616h41.934v7.776H66.904V61.616z M63.908,72.386h47.924V58.63H63.908V72.386z"/><g><defs><rect id="SVGID_3_" width="140.043" height="58.49" x="17.854" y="58.631"/></defs><clipPath id="SVGID_4_"><use overflow="visible" xlink:href="#SVGID_3_"/></clipPath><path fill="#231F20" d="M20.84,95.138h-2.994V81.372h2.994v5.441h5.353v-5.441h2.995v13.766h-2.995 v-5.704H20.84V95.138z M35.993,95.358c-3.04,0-5.108-1.916-5.108-5.065c0-3.062,2.024-5.176,4.711-5.176 c2.93,0,4.384,1.96,4.384,4.89v1.1h-6.255c0.353,1.52,1.541,1.916,2.731,1.916c1.034,0,1.783-0.22,2.709-0.793h0.109v2.269 C38.482,95.072,37.359,95.358,35.993,95.358 M33.725,89.103h3.568c-0.066-1.013-0.484-1.718-1.652-1.718 C34.76,87.385,33.988,87.759,33.725,89.103 M47.799,89.368l-1.541,5.77h-2.623l-2.994-9.691v-0.11h2.863l1.629,5.792 l1.543-5.792h2.334l1.564,5.792l1.65-5.792h2.754v0.11l-2.995,9.691h-2.621L47.799,89.368z M59.846,95.358 c-2.379,0-3.348-0.947-3.348-3.172V81.372h2.908v10.616c0,0.684,0.264,0.926,0.837,0.926c0.198,0,0.483-0.066,0.66-0.133h0.044 v2.401C60.705,95.27,60.286,95.358,59.846,95.358 M66.872,95.358c-3.04,0-5.11-1.916-5.11-5.065 c0-3.062,2.026-5.176,4.713-5.176c2.93,0,4.384,1.96,4.384,4.89v1.1h-6.255c0.353,1.52,1.542,1.916,2.73,1.916 c1.035,0,1.784-0.22,2.709-0.793h0.11v2.269C69.36,95.072,68.237,95.358,66.872,95.358 M64.604,89.103h3.568 c-0.066-1.013-0.484-1.718-1.652-1.718C65.639,87.385,64.867,87.759,64.604,89.103 M82.797,85.337h2.157v2.334h-2.157v3.987 c0,0.859,0.33,1.256,1.209,1.256c0.243,0,0.553-0.022,0.883-0.133h0.065v2.291c-0.374,0.131-0.948,0.286-1.784,0.286 c-2.356,0-3.281-1.079-3.281-3.568v-4.119h-3.721v3.987c0,0.859,0.328,1.256,1.209,1.256c0.243,0,0.551-0.022,0.881-0.133h0.067 v2.291c-0.375,0.131-0.948,0.286-1.785,0.286c-2.356,0-3.28-1.079-3.28-3.568v-4.119h-1.498v-2.334h1.498V82.65h2.908v2.687 h3.721V82.65h2.908V85.337z M100.036,86.042c0,2.995-2.004,4.625-5.043,4.625h-2.137v4.471h-2.995V81.372h5.132 C98.032,81.372,100.036,83.002,100.036,86.042 M94.75,88.135c1.521,0,2.247-0.859,2.247-2.093c0-1.278-0.727-2.137-2.247-2.137 h-1.894v4.23H94.75z M106.512,94.169c-0.639,0.77-1.584,1.145-2.599,1.145c-1.916,0-3.479-1.166-3.479-3.237 c0-1.917,1.563-3.194,3.81-3.194c0.705,0,1.431,0.11,2.181,0.331v-0.177c0-1.057-0.595-1.519-2.158-1.519 c-0.991,0-1.938,0.286-2.754,0.748h-0.109v-2.334c0.749-0.441,2.07-0.815,3.369-0.815c2.951,0,4.559,1.409,4.559,3.876v6.145 h-2.818V94.169z M106.424,92.054v-0.837c-0.44-0.242-1.014-0.33-1.607-0.33c-0.947,0-1.52,0.352-1.52,1.145 c0,0.816,0.572,1.168,1.43,1.168C105.543,93.2,106.159,92.781,106.424,92.054 M110.807,90.249c0-3.15,2.224-5.132,5.132-5.132 c1.034,0,2.005,0.22,2.731,0.748v2.49h-0.111c-0.637-0.485-1.387-0.772-2.246-0.772c-1.453,0-2.555,0.992-2.555,2.666 c0,1.673,1.102,2.643,2.555,2.643c0.859,0,1.609-0.287,2.246-0.772h0.111v2.489c-0.727,0.529-1.697,0.749-2.731,0.749 C113.03,95.358,110.807,93.398,110.807,90.249 M123.405,90.689v4.449h-2.908V81.372h2.908v7.842l2.928-3.877h3.306v0.11 l-3.524,4.449l3.524,5.133v0.109h-3.326L123.405,90.689z M136.245,94.169c-0.639,0.77-1.586,1.145-2.599,1.145 c-1.916,0-3.48-1.166-3.48-3.237c0-1.917,1.564-3.194,3.811-3.194c0.705,0,1.432,0.11,2.18,0.331v-0.177 c0-1.057-0.594-1.519-2.158-1.519c-0.99,0-1.938,0.286-2.753,0.748h-0.11v-2.334c0.75-0.441,2.07-0.815,3.371-0.815 c2.95,0,4.559,1.409,4.559,3.876v6.145h-2.819V94.169z M136.156,92.054v-0.837c-0.439-0.242-1.012-0.33-1.607-0.33 c-0.947,0-1.52,0.352-1.52,1.145c0,0.816,0.572,1.168,1.432,1.168C135.276,93.2,135.893,92.781,136.156,92.054 M143.954,86.922 c0.528-1.079,1.3-1.695,2.378-1.695c0.397,0,0.793,0.087,0.947,0.176v2.775h-0.109c-0.332-0.132-0.727-0.221-1.279-0.221 c-0.901,0-1.606,0.529-1.848,1.543v5.638h-2.908v-9.801h2.819V86.922z M155.076,94.125c-0.615,0.793-1.585,1.233-2.908,1.233 c-2.51,0-4.117-2.291-4.117-5.109c0-2.82,1.607-5.132,4.117-5.132c1.278,0,2.204,0.396,2.82,1.123v-4.868h2.908v13.766h-2.82 V94.125z M154.988,91.813v-3.15c-0.484-0.706-1.123-1.014-1.85-1.014c-1.278,0-2.137,0.926-2.137,2.6 c0,1.673,0.858,2.577,2.137,2.577C153.865,92.826,154.504,92.517,154.988,91.813 M45.692,99.633h8.502v1.674h-6.585v4.207h5.969 v1.63h-5.969v4.581h6.585v1.673h-8.502V99.633z M61.221,103.509c2.181,0,3.391,1.432,3.391,3.788v6.101h-1.827v-6.056 c0-1.255-0.639-2.159-2.026-2.159c-1.145,0-2.113,0.727-2.444,1.762v6.453h-1.828v-9.69h1.828v1.409 C58.887,104.214,59.854,103.509,61.221,103.509 M69.524,103.708h2.487v1.564h-2.487v5.219c0,1.101,0.571,1.476,1.606,1.476 c0.287,0,0.596-0.044,0.816-0.132h0.064v1.563c-0.264,0.111-0.638,0.199-1.145,0.199c-2.27,0-3.171-1.036-3.171-2.93v-5.395 h-1.674v-1.564h1.674v-2.578h1.828V103.708z M77.959,113.597c-2.841,0-4.779-1.895-4.779-4.934s1.806-5.154,4.427-5.154 c2.665,0,4.053,1.916,4.053,4.758v0.836h-6.651c0.197,1.961,1.453,2.908,3.193,2.908c1.08,0,1.85-0.243,2.709-0.881h0.066v1.608 C80.184,113.354,79.148,113.597,77.959,113.597 M75.074,107.606h4.823c-0.066-1.432-0.771-2.533-2.269-2.533 C76.241,105.073,75.338,106.108,75.074,107.606 M85.646,105.205c0.418-1.035,1.343-1.652,2.4-1.652 c0.418,0,0.793,0.067,0.946,0.155v1.806h-0.065c-0.264-0.132-0.705-0.198-1.146-0.198c-0.991,0-1.828,0.66-2.136,1.762v6.32 h-1.828v-9.69h1.828V105.205z M95.204,103.509c2.886,0,4.427,2.357,4.427,5.044s-1.541,5.044-4.427,5.044 c-1.188,0-2.202-0.617-2.709-1.278v4.801h-1.827v-13.412h1.827v1.101C93.002,104.126,94.016,103.509,95.204,103.509 M94.896,111.946c1.806,0,2.863-1.433,2.863-3.393c0-1.938-1.058-3.392-2.863-3.392c-0.992,0-1.916,0.595-2.401,1.542v3.722 C92.98,111.373,93.904,111.946,94.896,111.946 M103.618,105.205c0.418-1.035,1.343-1.652,2.401-1.652 c0.418,0,0.791,0.067,0.945,0.155v1.806h-0.065c-0.265-0.132-0.705-0.198-1.146-0.198c-0.99,0-1.828,0.66-2.136,1.762v6.32 h-1.829v-9.69h1.829V105.205z M109.608,99.787c0.639,0,1.168,0.507,1.168,1.145c0,0.639-0.529,1.146-1.168,1.146 c-0.617,0-1.167-0.507-1.167-1.146C108.441,100.294,108.991,99.787,109.608,99.787 M108.705,103.708h1.828v9.691h-1.828V103.708 z M117.053,107.738c1.388,0.441,2.93,1.013,2.93,2.864c0,1.981-1.631,2.995-3.723,2.995c-1.277,0-2.555-0.309-3.281-0.881 v-1.741h0.088c0.814,0.75,2.025,1.08,3.171,1.08c1.036,0,1.961-0.397,1.961-1.234c0-0.859-0.771-1.057-2.291-1.563 c-1.364-0.441-2.885-0.948-2.885-2.776c0-1.872,1.542-2.973,3.502-2.973c1.146,0,2.159,0.243,2.973,0.793v1.763h-0.065 c-0.793-0.64-1.717-1.014-2.862-1.014c-1.147,0-1.785,0.507-1.785,1.189C114.784,107.011,115.489,107.231,117.053,107.738 M126.348,113.597c-2.842,0-4.779-1.895-4.779-4.934s1.806-5.154,4.427-5.154c2.665,0,4.052,1.916,4.052,4.758v0.836h-6.651 c0.198,1.961,1.454,2.908,3.194,2.908c1.08,0,1.85-0.243,2.709-0.881h0.066v1.608 C128.572,113.354,127.537,113.597,126.348,113.597 M123.463,107.606h4.823c-0.067-1.432-0.771-2.533-2.269-2.533 C124.631,105.073,123.727,106.108,123.463,107.606" clip-path="url(#SVGID_4_)"/></g></g></g></switch></svg>